<svg width="22" height="24" viewBox="0 0 22 24" fill="none" xmlns="http://www.w3.org/2000/svg">
<path d="M13.2095 0.046875C13.3993 0.816798 13.5947 1.5861 13.7752 2.35852C13.8164 2.53523 13.8757 2.66511 14.0668 2.70008C14.0893 2.70445 14.113 2.71257 14.1317 2.72506C14.6269 3.07162 15.0596 2.94736 15.5149 2.60642C15.9432 2.28608 16.4272 2.04006 16.8786 1.74907C17.0272 1.65291 17.1253 1.64667 17.2583 1.78092C18.1618 2.69509 19.0704 3.60363 19.9845 4.50718C20.1169 4.63769 20.1188 4.73698 20.0232 4.88809C19.6324 5.5069 19.2577 6.13632 18.8656 6.75389C18.7744 6.89751 18.7594 7.01552 18.8431 7.16039C18.8974 7.25406 18.953 7.35521 18.9711 7.46012C19.0416 7.86475 19.3133 7.99338 19.6817 8.06519C20.2924 8.18446 20.8931 8.35243 21.5007 8.48668C21.6867 8.52789 21.761 8.61282 21.7604 8.80202C21.756 10.0796 21.7567 11.3566 21.7604 12.6342C21.7604 12.7996 21.7048 12.8852 21.5331 12.9245C20.82 13.0862 20.1107 13.2648 19.3976 13.4278C19.2302 13.4659 19.1141 13.5327 19.0704 13.7088C19.046 13.8062 19.0148 13.9092 18.9586 13.9898C18.7169 14.3382 18.8125 14.6311 19.0373 14.9577C19.3907 15.4697 19.6942 16.0161 20.027 16.5425C20.1075 16.6698 20.1038 16.7566 19.9983 16.8678C19.4369 17.4623 18.8855 18.0661 18.3229 18.6593C18.2068 18.7817 18.1749 18.8872 18.2268 19.0521C18.4247 19.6815 18.4784 20.334 18.4865 20.9884C18.4978 21.8838 18.4903 22.7799 18.489 23.6753C18.489 23.9919 18.4847 23.995 18.1818 23.995C13.4617 23.995 8.74228 23.9932 4.02221 24.0007C3.77806 24.0007 3.71686 23.9157 3.71999 23.6909C3.73685 22.5701 3.69376 21.448 3.7562 20.3278C3.7818 19.8676 3.86673 19.4155 4.00785 18.9771C4.0628 18.8073 4.02221 18.7067 3.89982 18.5925C3.30911 18.0386 2.72901 17.4735 2.13705 16.9202C2.00343 16.7954 1.99031 16.6992 2.08897 16.5431C2.48486 15.918 2.86452 15.283 3.25791 14.6567C3.34158 14.5237 3.35657 14.4138 3.28226 14.2702C3.1861 14.0841 3.10555 13.8874 3.04185 13.6882C2.9919 13.5321 2.89324 13.4684 2.74525 13.434C2.02528 13.2661 1.30781 13.0875 0.586592 12.9251C0.414249 12.8864 0.357426 12.8021 0.357426 12.6366C0.360548 11.3591 0.361172 10.0821 0.357426 8.80452C0.356801 8.61532 0.431733 8.53039 0.617189 8.48856C1.3228 8.32933 2.02466 8.14949 2.73026 7.99026C2.90448 7.95092 2.99939 7.86787 3.05434 7.70177C3.11491 7.51757 3.18547 7.33336 3.27664 7.16289C3.36281 7.00241 3.33346 6.8819 3.24042 6.73515C2.85265 6.12321 2.48174 5.50128 2.09522 4.88871C2.0003 4.73822 2.00155 4.63832 2.13393 4.50781C3.04747 3.60426 3.95602 2.69509 4.8602 1.78217C4.97884 1.66228 5.07063 1.64042 5.22049 1.73534C5.84555 2.13123 6.48059 2.51088 7.10627 2.90552C7.23928 2.98982 7.35355 3.01604 7.4928 2.93487C7.57272 2.88804 7.65952 2.83933 7.74881 2.82372C8.20527 2.74504 8.35076 2.43845 8.43194 2.01883C8.56057 1.35568 8.74728 0.703776 8.90901 0.046875C10.3427 0.046875 11.7758 0.046875 13.2095 0.046875ZM8.12597 14.6099C5.90986 12.6997 5.86428 9.66998 7.59395 7.74423C9.32363 5.81786 12.2416 5.64802 14.2342 7.3702C15.1908 8.19632 15.7272 9.2666 15.824 10.523C15.9501 12.1621 15.3369 13.5165 14.0849 14.6099C14.5258 14.7797 14.9279 14.9639 15.3063 15.1956C16.143 15.7076 16.8393 16.367 17.3713 17.1925C17.4737 17.3511 17.5399 17.3586 17.6592 17.2169C17.8146 17.0326 17.9795 16.8553 18.1531 16.6873C18.273 16.5712 18.263 16.4788 18.1774 16.3445C17.8352 15.8056 17.5087 15.2568 17.1677 14.7166C17.0797 14.5774 17.0672 14.4575 17.1328 14.3045C17.3938 13.6963 17.6504 13.0862 17.8939 12.4706C17.9601 12.3032 18.0625 12.2308 18.228 12.1933C18.8275 12.0566 19.4232 11.9042 20.0232 11.7699C20.1975 11.7306 20.2705 11.6569 20.2668 11.4715C20.2568 10.9657 20.2562 10.4586 20.2668 9.95285C20.2711 9.76926 20.2037 9.69121 20.0295 9.65187C19.4219 9.51512 18.8187 9.36151 18.2118 9.22351C18.0513 9.18729 17.9595 9.10924 17.8977 8.95376C17.6523 8.33932 17.3975 7.728 17.1359 7.12043C17.0659 6.9587 17.0828 6.83319 17.1752 6.68707C17.5093 6.1613 17.8271 5.62492 18.1618 5.09977C18.2561 4.95178 18.2393 4.85624 18.1169 4.7376C17.7584 4.39104 17.4031 4.04073 17.0603 3.67919C16.923 3.53432 16.8143 3.51372 16.6426 3.62424C16.1249 3.95644 15.5935 4.2674 15.0753 4.59898C14.926 4.69451 14.8011 4.69951 14.6419 4.63082C14.0481 4.37543 13.4511 4.12815 12.851 3.889C12.6743 3.81906 12.5788 3.71853 12.5369 3.52808C12.4096 2.94299 12.2547 2.36351 12.1292 1.77717C12.0855 1.57236 12.0043 1.49243 11.7883 1.4993C11.3056 1.51429 10.8223 1.51304 10.3396 1.4993C10.1316 1.49368 10.0361 1.55612 9.99114 1.76781C9.86376 2.36913 9.71015 2.96484 9.57215 3.56367C9.53781 3.71291 9.46725 3.8072 9.31988 3.86714C8.6917 4.12004 8.06602 4.38105 7.44284 4.64518C7.30672 4.70326 7.19869 4.69264 7.07255 4.61334C6.53242 4.27302 5.9848 3.94457 5.44341 3.60488C5.30979 3.52121 5.21487 3.51996 5.09873 3.63985C4.73593 4.01513 4.36627 4.38355 3.99224 4.74759C3.87672 4.85999 3.86485 4.9524 3.95227 5.09103C4.29384 5.63054 4.62166 6.17879 4.96073 6.71954C5.03816 6.84256 5.05564 6.95121 4.99632 7.08983C4.72969 7.71239 4.46743 8.33682 4.21453 8.96562C4.15147 9.12298 4.0553 9.19166 3.89483 9.22788C3.28726 9.36401 2.68405 9.51824 2.07648 9.65437C1.90851 9.69183 1.84794 9.76864 1.85044 9.94036C1.85918 10.4543 1.85981 10.9688 1.85044 11.4827C1.84732 11.6588 1.91913 11.7294 2.08273 11.7662C2.68967 11.9029 3.29412 12.0541 3.90107 12.1921C4.05968 12.2283 4.15521 12.302 4.21766 12.4587C4.46306 13.0731 4.71595 13.6851 4.98009 14.292C5.05502 14.4644 5.03191 14.5924 4.9345 14.7447C4.6073 15.2568 4.30008 15.7807 3.97226 16.2921C3.86673 16.4569 3.88109 16.5643 4.02783 16.6892C4.20579 16.8403 4.37439 17.0039 4.53112 17.1769C4.68098 17.3417 4.76341 17.3105 4.87955 17.1338C5.37785 16.3739 6.02289 15.7601 6.78719 15.2705C7.20056 15.0051 7.64453 14.8003 8.12472 14.6105L8.12597 14.6099ZM11.0826 22.5226C12.9597 22.5226 14.8367 22.5201 16.7144 22.5264C16.9273 22.527 17.0029 22.4614 16.9973 22.246C16.9841 21.7246 16.9985 21.202 16.9885 20.6806C16.9436 18.3827 15.325 16.3732 13.0808 15.8606C11.9525 15.6027 10.801 15.6683 9.66332 15.7694C7.49654 15.9611 5.56455 17.8669 5.27607 20.0287C5.1799 20.7505 5.23673 21.4755 5.22174 22.1986C5.21487 22.5214 5.22174 22.522 5.5452 22.5226C7.39101 22.5226 9.23746 22.5226 11.0833 22.5226H11.0826ZM11.1058 14.1646C12.916 14.1646 14.364 12.7247 14.3653 10.9226C14.3665 9.11423 12.9278 7.6718 11.1189 7.66743C9.2974 7.66306 7.84622 9.10612 7.84685 10.9213C7.8481 12.7234 9.29553 14.164 11.1058 14.1646Z" fill="#565454"/>
</svg>
